<svg width="20" height="20" viewBox="0 0 20 20" fill="none" xmlns="http://www.w3.org/2000/svg">
<path d="M14.1667 17.7084H5.83334C2.79167 17.7084 1.04167 15.9584 1.04167 12.9167V7.08341C1.04167 4.04175 2.79167 2.29175 5.83334 2.29175H14.1667C17.2083 2.29175 18.9583 4.04175 18.9583 7.08341V12.9167C18.9583 15.9584 17.2083 17.7084 14.1667 17.7084ZM5.83334 3.54175C3.45001 3.54175 2.29167 4.70008 2.29167 7.08341V12.9167C2.29167 15.3001 3.45001 16.4584 5.83334 16.4584H14.1667C16.55 16.4584 17.7083 15.3001 17.7083 12.9167V7.08341C17.7083 4.70008 16.55 3.54175 14.1667 3.54175H5.83334Z" fill="#A3A3A3"/>
<path d="M5 13.9584C4.65833 13.9584 4.375 13.6751 4.375 13.3334V6.66675C4.375 6.32508 4.65833 6.04175 5 6.04175C5.34167 6.04175 5.625 6.32508 5.625 6.66675V13.3334C5.625 13.6751 5.34167 13.9584 5 13.9584Z" fill="#A3A3A3"/>
<path d="M7.5 10.6251C7.15833 10.6251 6.875 10.3417 6.875 10.0001V6.66675C6.875 6.32508 7.15833 6.04175 7.5 6.04175C7.84167 6.04175 8.125 6.32508 8.125 6.66675V10.0001C8.125 10.3417 7.84167 10.6251 7.5 10.6251Z" fill="#A3A3A3"/>
<path d="M7.5 13.9583C7.15833 13.9583 6.875 13.675 6.875 13.3333V12.5C6.875 12.1583 7.15833 11.875 7.5 11.875C7.84167 11.875 8.125 12.1583 8.125 12.5V13.3333C8.125 13.675 7.84167 13.9583 7.5 13.9583Z" fill="#A3A3A3"/>
<path d="M12.5 8.12508C12.1583 8.12508 11.875 7.84175 11.875 7.50008V6.66675C11.875 6.32508 12.1583 6.04175 12.5 6.04175C12.8417 6.04175 13.125 6.32508 13.125 6.66675V7.50008C13.125 7.84175 12.8417 8.12508 12.5 8.12508Z" fill="#A3A3A3"/>
<path d="M10 13.9584C9.65833 13.9584 9.375 13.6751 9.375 13.3334V6.66675C9.375 6.32508 9.65833 6.04175 10 6.04175C10.3417 6.04175 10.625 6.32508 10.625 6.66675V13.3334C10.625 13.6751 10.3417 13.9584 10 13.9584Z" fill="#A3A3A3"/>
<path d="M12.5 13.9583C12.1583 13.9583 11.875 13.675 11.875 13.3333V10C11.875 9.65833 12.1583 9.375 12.5 9.375C12.8417 9.375 13.125 9.65833 13.125 10V13.3333C13.125 13.675 12.8417 13.9583 12.5 13.9583Z" fill="#A3A3A3"/>
<path d="M15 13.9584C14.6583 13.9584 14.375 13.6751 14.375 13.3334V6.66675C14.375 6.32508 14.6583 6.04175 15 6.04175C15.3417 6.04175 15.625 6.32508 15.625 6.66675V13.3334C15.625 13.6751 15.3417 13.9584 15 13.9584Z" fill="#A3A3A3"/>
</svg>
